name rise30.8019peak61.5557fall86.2505.mot
datacolumns 19
datarows 11
range 3.62331900000000 3.63998600000000
endheader
time	ground_force1_vx	ground_force1_vy	ground_force1_vz	ground_force1_px	ground_force1_py	ground_force1_pz	ground_force2_vx	ground_force2_vy	ground_force2_vz	ground_force2_px	ground_force2_py	ground_force2_pz	ground_torque1_x	ground_torque1_y	ground_torque1_z	ground_torque2_x	ground_torque2_y	ground_torque2_z	
3.62331900000000	-4.33100600000000	40.93365100000000	-10.43988900000000	0.27066700000000	0.00000000000000	0.09313400000000	-58.84238600000000	749.87336900000003	-43.77272100000000	0.01282500000000	0.00000000000000	-0.07265900000000	0.00000000000000	-5.84708700000000	0.00000000000000	0.00000000000000	-8.26365700000000	0.00000000000000	
3.62498700000000	-4.55447100000000	47.76763200000000	-11.71082100000000	0.27482700000000	0.00000000000000	0.09399000000000	-59.92512700000000	747.92634199999998	-43.57764700000000	0.01196400000000	0.00000000000000	-0.07252300000000	0.00000000000000	-6.65135200000000	0.00000000000000	0.00000000000000	-8.34986400000000	0.00000000000000	
3.62665200000000	-4.64379900000000	54.63309900000000	-12.85724300000000	0.27858100000000	0.00000000000000	0.09478400000000	-61.02980100000000	745.88104999999996	-43.36953500000000	0.01110100000000	0.00000000000000	-0.07238400000000	0.00000000000000	-7.40381400000000	0.00000000000000	0.00000000000000	-8.44106500000000	0.00000000000000	
3.62832600000000	-4.58702200000000	61.43745500000000	-13.85231700000000	0.28198300000000	0.00000000000000	0.09552200000000	-62.15474800000000	743.73327900000004	-43.14761800000000	0.01023500000000	0.00000000000000	-0.07224400000000	0.00000000000000	-8.08780500000000	0.00000000000000	0.00000000000000	-8.53707300000000	0.00000000000000	
3.62999300000000	-4.37852800000000	68.11211900000001	-14.67881700000000	0.28508100000000	0.00000000000000	0.09621200000000	-63.29817900000000	741.47877200000005	-42.91114000000000	0.00936600000000	0.00000000000000	-0.07210100000000	0.00000000000000	-8.69182000000000	0.00000000000000	0.00000000000000	-8.63768300000000	0.00000000000000	
3.63165900000000	-4.01877900000000	74.61445200000000	-15.32918900000000	0.28791300000000	0.00000000000000	0.09686000000000	-64.45818700000000	739.11324400000001	-42.65936200000000	0.00849600000000	0.00000000000000	-0.07195600000000	0.00000000000000	-9.20971200000000	0.00000000000000	0.00000000000000	-8.74267100000000	0.00000000000000	
3.63332100000000	-3.51356900000000	80.92723400000000	-15.80481100000000	0.29051100000000	0.00000000000000	0.09747100000000	-65.63274400000000	736.63239199999998	-42.39156400000000	0.00762400000000	0.00000000000000	-0.07180800000000	0.00000000000000	-9.64040700000000	0.00000000000000	0.00000000000000	-8.85179500000000	0.00000000000000	
3.63499100000000	-2.87298100000000	87.05612900000000	-16.11464500000000	0.29290200000000	0.00000000000000	0.09804900000000	-66.81970900000000	734.03191400000003	-42.10704800000000	0.00675000000000	0.00000000000000	-0.07165900000000	0.00000000000000	-9.98725300000000	0.00000000000000	0.00000000000000	-8.96479700000000	0.00000000000000	
3.63665400000000	-2.11016100000000	93.02570100000000	-16.27350400000000	0.29510800000000	0.00000000000000	0.09859700000000	-68.01682700000001	731.30751599999996	-41.80514800000000	0.00587500000000	0.00000000000000	-0.07150600000000	0.00000000000000	-10.25711100000000	0.00000000000000	0.00000000000000	-9.08139800000000	0.00000000000000	
3.63832200000000	-1.24006200000000	98.87457000000001	-16.30012500000000	0.29714800000000	0.00000000000000	0.09911800000000	-69.22173700000000	728.45493499999998	-41.48522900000000	0.00500000000000	0.00000000000000	-0.07135200000000	0.00000000000000	-10.45931700000000	0.00000000000000	0.00000000000000	-9.20130600000000	0.00000000000000	
3.63998600000000	-0.27824000000000	104.65024800000000	-16.21526900000000	0.29904100000000	0.00000000000000	0.09961500000000	-70.43197700000000	725.46994700000005	-41.14669100000000	0.00412300000000	0.00000000000000	-0.07119500000000	0.00000000000000	-10.60461200000000	0.00000000000000	0.00000000000000	-9.32421000000000	0.00000000000000	
